X Lossless Decoder version 20100511 (119.2)

XLD extraction logfile from 2010-05-14 11:17:31 +0200

Nas & Damian Marley / Distant Relatives

Used drive : MATSHITA CD-RW  CW-8124 (revision DACH)

Use cdparanoia mode     : YES (CDParanoia III 10.2 engine)
Disable audio cache     : OK for the drive with cache less than 2750KB
Make use of C2 pointers : NO
Read offset correction  : 102
Max retry count         : 100

TOC of the extracted CD
     Track |   Start  |  Length  | Start sector | End sector 
    ---------------------------------------------------------
        1  | 00:00:00 | 02:28:27 |         0    |    11126   
        2  | 02:28:27 | 04:30:02 |     11127    |    31378   
        3  | 06:58:29 | 06:01:35 |     31379    |    58488   
        4  | 12:59:64 | 04:19:46 |     58489    |    77959   
        5  | 17:19:35 | 04:49:10 |     77960    |    99644   
        6  | 22:08:45 | 04:23:71 |     99645    |   119440   
        7  | 26:32:41 | 05:53:06 |    119441    |   145921   
        8  | 32:25:47 | 03:53:40 |    145922    |   163436   
        9  | 36:19:12 | 05:00:09 |    163437    |   185945   
       10  | 41:19:21 | 04:08:65 |    185946    |   204610   
       11  | 45:28:11 | 05:45:58 |    204611    |   230543   
       12  | 51:13:69 | 03:59:70 |    230544    |   248538   
       13  | 55:13:64 | 06:40:37 |    248539    |   278575   

All Tracks
    Album gain             : -9.47 dB
    Peak                   : 1.000000

Track 01
    Filename : /Nas.&.Damian.Marley.Distant.Relatives.2010.FLAC-HDC/01. As We Enter.flac

    Pre-gap length : 00:02:00

    Track gain             : -10.49 dB
    Peak                   : 0.998840
    CRC32 hash (test run)  : 3B924691
    CRC32 hash             : 3B924691
    CRC32 hash (skip zero) : E3AC6AD2
    AccurateRip signature  : ED770C18
        ->Track not present in AccurateRip database.
    Statistics
        Read error                           : 0
        Skipped (treated as error)           : 0
        Edge jitter error (maybe fixed)      : 0
        Atom jitter error (maybe fixed)      : 0
        Drift error (maybe fixed)            : 0
        Dropped bytes error (maybe fixed)    : 0
        Duplicated bytes error (maybe fixed) : 0
        Inconsistency in error sectors       : 0

Track 02
    Filename : /Nas.&.Damian.Marley.Distant.Relatives.2010.FLAC-HDC/02. Tribes At War (feat. Knaan).flac

    Pre-gap length : 00:00:34

    Track gain             : -8.39 dB
    Peak                   : 0.998840
    CRC32 hash (test run)  : 0A8E436D
    CRC32 hash             : 0A8E436D
    CRC32 hash (skip zero) : EA15BD58
    AccurateRip signature  : CC6BB05B
        ->Track not present in AccurateRip database.
    Statistics
        Read error                           : 0
        Skipped (treated as error)           : 0
        Edge jitter error (maybe fixed)      : 0
        Atom jitter error (maybe fixed)      : 0
        Drift error (maybe fixed)            : 0
        Dropped bytes error (maybe fixed)    : 0
        Duplicated bytes error (maybe fixed) : 0
        Inconsistency in error sectors       : 0

Track 03
    Filename : /Nas.&.Damian.Marley.Distant.Relatives.2010.FLAC-HDC/03. Strong Will Continue.flac

    Track gain             : -9.23 dB
    Peak                   : 0.998840
    CRC32 hash (test run)  : 60B9A469
    CRC32 hash             : 60B9A469
    CRC32 hash (skip zero) : 53EF1F4C
    AccurateRip signature  : 5FA8B3E9
        ->Track not present in AccurateRip database.
    Statistics
        Read error                           : 0
        Skipped (treated as error)           : 0
        Edge jitter error (maybe fixed)      : 0
        Atom jitter error (maybe fixed)      : 0
        Drift error (maybe fixed)            : 0
        Dropped bytes error (maybe fixed)    : 0
        Duplicated bytes error (maybe fixed) : 0
        Inconsistency in error sectors       : 0

Track 04
    Filename : /Nas.&.Damian.Marley.Distant.Relatives.2010.FLAC-HDC/04. Leaders (feat. Stephen Marley).flac

    Track gain             : -7.35 dB
    Peak                   : 0.997711
    CRC32 hash (test run)  : A0A4E5AB
    CRC32 hash             : A0A4E5AB
    CRC32 hash (skip zero) : 92B6F601
    AccurateRip signature  : 08D59AE2
        ->Track not present in AccurateRip database.
    Statistics
        Read error                           : 0
        Skipped (treated as error)           : 0
        Edge jitter error (maybe fixed)      : 0
        Atom jitter error (maybe fixed)      : 0
        Drift error (maybe fixed)            : 0
        Dropped bytes error (maybe fixed)    : 0
        Duplicated bytes error (maybe fixed) : 0
        Inconsistency in error sectors       : 0

Track 05
    Filename : /Nas.&.Damian.Marley.Distant.Relatives.2010.FLAC-HDC/05. Friends.flac

    Track gain             : -9.25 dB
    Peak                   : 0.998840
    CRC32 hash (test run)  : 018D17EE
    CRC32 hash             : 018D17EE
    CRC32 hash (skip zero) : 11E22511
    AccurateRip signature  : 1D7953B5
        ->Track not present in AccurateRip database.
    Statistics
        Read error                           : 0
        Skipped (treated as error)           : 0
        Edge jitter error (maybe fixed)      : 0
        Atom jitter error (maybe fixed)      : 0
        Drift error (maybe fixed)            : 0
        Dropped bytes error (maybe fixed)    : 0
        Duplicated bytes error (maybe fixed) : 0
        Inconsistency in error sectors       : 0

Track 06
    Filename : /Nas.&.Damian.Marley.Distant.Relatives.2010.FLAC-HDC/06. Count Your Blessings.flac

    Track gain             : -8.61 dB
    Peak                   : 0.998871
    CRC32 hash (test run)  : ED4BA5C8
    CRC32 hash             : ED4BA5C8
    CRC32 hash (skip zero) : 8E7859C9
    AccurateRip signature  : 0065EC61
        ->Track not present in AccurateRip database.
    Statistics
        Read error                           : 0
        Skipped (treated as error)           : 0
        Edge jitter error (maybe fixed)      : 0
        Atom jitter error (maybe fixed)      : 0
        Drift error (maybe fixed)            : 0
        Dropped bytes error (maybe fixed)    : 0
        Duplicated bytes error (maybe fixed) : 0
        Inconsistency in error sectors       : 0

Track 07
    Filename : /Nas.&.Damian.Marley.Distant.Relatives.2010.FLAC-HDC/07. Dispear.flac

    Track gain             : -10.72 dB
    Peak                   : 0.998840
    CRC32 hash (test run)  : 47EB3A21
    CRC32 hash             : 47EB3A21
    CRC32 hash (skip zero) : 9E15E284
    AccurateRip signature  : C44139E8
        ->Track not present in AccurateRip database.
    Statistics
        Read error                           : 0
        Skipped (treated as error)           : 0
        Edge jitter error (maybe fixed)      : 0
        Atom jitter error (maybe fixed)      : 0
        Drift error (maybe fixed)            : 0
        Dropped bytes error (maybe fixed)    : 0
        Duplicated bytes error (maybe fixed) : 0
        Inconsistency in error sectors       : 0

Track 08
    Filename : /Nas.&.Damian.Marley.Distant.Relatives.2010.FLAC-HDC/08. Land Of Promise (feat. Dennis Brown).flac

    Track gain             : -7.67 dB
    Peak                   : 0.998840
    CRC32 hash (test run)  : 6819B086
    CRC32 hash             : 6819B086
    CRC32 hash (skip zero) : 51B07479
    AccurateRip signature  : 77907912
        ->Track not present in AccurateRip database.
    Statistics
        Read error                           : 0
        Skipped (treated as error)           : 0
        Edge jitter error (maybe fixed)      : 0
        Atom jitter error (maybe fixed)      : 0
        Drift error (maybe fixed)            : 0
        Dropped bytes error (maybe fixed)    : 0
        Duplicated bytes error (maybe fixed) : 0
        Inconsistency in error sectors       : 0

Track 09
    Filename : /Nas.&.Damian.Marley.Distant.Relatives.2010.FLAC-HDC/09. In His Own Words (feat. Stephen Marley).flac

    Track gain             : -8.72 dB
    Peak                   : 0.998840
    CRC32 hash (test run)  : 62DD6139
    CRC32 hash             : 62DD6139
    CRC32 hash (skip zero) : DDA525D1
    AccurateRip signature  : 2D3D5086
        ->Track not present in AccurateRip database.
    Statistics
        Read error                           : 0
        Skipped (treated as error)           : 0
        Edge jitter error (maybe fixed)      : 0
        Atom jitter error (maybe fixed)      : 0
        Drift error (maybe fixed)            : 0
        Dropped bytes error (maybe fixed)    : 0
        Duplicated bytes error (maybe fixed) : 0
        Inconsistency in error sectors       : 0

Track 10
    Filename : /Nas.&.Damian.Marley.Distant.Relatives.2010.FLAC-HDC/10. Nah Mean.flac

    Pre-gap length : 00:00:61

    Track gain             : -10.74 dB
    Peak                   : 1.000000
    CRC32 hash (test run)  : C877DA01
    CRC32 hash             : C877DA01
    CRC32 hash (skip zero) : 327A7CEC
    AccurateRip signature  : 4899CC04
        ->Track not present in AccurateRip database.
    Statistics
        Read error                           : 0
        Skipped (treated as error)           : 0
        Edge jitter error (maybe fixed)      : 0
        Atom jitter error (maybe fixed)      : 0
        Drift error (maybe fixed)            : 0
        Dropped bytes error (maybe fixed)    : 0
        Duplicated bytes error (maybe fixed) : 0
        Inconsistency in error sectors       : 0

Track 11
    Filename : /Nas.&.Damian.Marley.Distant.Relatives.2010.FLAC-HDC/11. Patience.flac

    Pre-gap length : 00:01:61

    Track gain             : -6.10 dB
    Peak                   : 0.998840
    CRC32 hash (test run)  : 2816E00C
    CRC32 hash             : 2816E00C
    CRC32 hash (skip zero) : C74AD80C
    AccurateRip signature  : 4B07A7C3
        ->Track not present in AccurateRip database.
    Statistics
        Read error                           : 0
        Skipped (treated as error)           : 0
        Edge jitter error (maybe fixed)      : 0
        Atom jitter error (maybe fixed)      : 0
        Drift error (maybe fixed)            : 0
        Dropped bytes error (maybe fixed)    : 0
        Duplicated bytes error (maybe fixed) : 0
        Inconsistency in error sectors       : 0

Track 12
    Filename : /Nas.&.Damian.Marley.Distant.Relatives.2010.FLAC-HDC/12. My Generation (feat. Lil Wayne & Joss Stone).flac

    Pre-gap length : 00:00:51

    Track gain             : -10.84 dB
    Peak                   : 0.998840
    CRC32 hash (test run)  : CF3D7E35
    CRC32 hash             : CF3D7E35
    CRC32 hash (skip zero) : 6DEA00E8
    AccurateRip signature  : 30D58B2C
        ->Track not present in AccurateRip database.
    Statistics
        Read error                           : 0
        Skipped (treated as error)           : 0
        Edge jitter error (maybe fixed)      : 0
        Atom jitter error (maybe fixed)      : 0
        Drift error (maybe fixed)            : 0
        Dropped bytes error (maybe fixed)    : 0
        Duplicated bytes error (maybe fixed) : 0
        Inconsistency in error sectors       : 0

Track 13
    Filename : /Nas.&.Damian.Marley.Distant.Relatives.2010.FLAC-HDC/13. Africa Must Wake Up (feat. Knann).flac

    Track gain             : -8.71 dB
    Peak                   : 0.998840
    CRC32 hash (test run)  : 0E51A0B4
    CRC32 hash             : 0E51A0B4
    CRC32 hash (skip zero) : 81704981
    AccurateRip signature  : D68789E5
        ->Track not present in AccurateRip database.
    Statistics
        Read error                           : 0
        Skipped (treated as error)           : 0
        Edge jitter error (maybe fixed)      : 0
        Atom jitter error (maybe fixed)      : 0
        Drift error (maybe fixed)            : 0
        Dropped bytes error (maybe fixed)    : 0
        Duplicated bytes error (maybe fixed) : 0
        Inconsistency in error sectors       : 0

No errors occurred

End of status report